<?xml version="1.0" encoding="UTF-8"?>
<svg version="1.1" xmlns="http://www.w3.org/2000/svg" width="2000" height="2000">
<path d="M0 0 C660 0 1320 0 2000 0 C2000 660 2000 1320 2000 2000 C1340 2000 680 2000 0 2000 C0 1340 0 680 0 0 Z " fill="#FEFEFE" transform="translate(0,0)"/>
<path d="M0 0 C0.89895996 0.21881836 1.79791992 0.43763672 2.72412109 0.66308594 C50.05222968 12.58398246 92.5837353 41.86288078 118.03564453 83.91821289 C120.40403625 87.88875195 122.74719662 91.87327808 125.0625 95.875 C132.06597673 93.80885198 132.06597673 93.80885198 139.01171875 91.55859375 C167.40387727 82.09454091 197.34749504 84.36255286 224.14916992 97.74511719 C231.08016325 101.38528161 237.19267446 105.69574217 243.0625 110.875 C243.88105469 111.56207031 244.69960937 112.24914062 245.54296875 112.95703125 C257.17060478 122.96220644 265.20469067 134.31304772 272.0625 147.875 C272.55621094 148.84824219 273.04992188 149.82148438 273.55859375 150.82421875 C284.84386837 175.4690085 285.30503523 204.30913975 276.9375 229.875 C268.50757685 251.75265769 253.83439331 273.96469718 233.0625 285.875 C232.4025 285.875 231.7425 285.875 231.0625 285.875 C234.42193064 289.60959548 238.17745922 291.94621124 242.4375 294.5 C250.24716152 299.28696753 257.69821513 304.4330318 265.0625 309.875 C265.71782715 310.35759277 266.3731543 310.84018555 267.04833984 311.33740234 C275.57359663 317.62864928 283.96002603 324.04282915 292.0625 330.875 C292.59552734 331.32311035 293.12855469 331.7712207 293.67773438 332.23291016 C306.64875759 343.15918541 318.93005602 354.65401467 330.9375 366.625 C331.43595428 367.12077545 331.93440857 367.6165509 332.44796753 368.12734985 C338.20669246 373.86258673 343.80188961 379.67613793 349.0625 385.875 C350.03539779 386.99311119 351.00932369 388.11032879 351.984375 389.2265625 C382.13990593 424.03556246 406.51652492 462.73806334 427.0625 503.875 C427.6824585 505.10307373 427.6824585 505.10307373 428.31494141 506.35595703 C440.94103564 531.47680215 450.72687219 558.73475014 458.0625 585.875 C458.32530762 586.84308594 458.58811523 587.81117188 458.85888672 588.80859375 C473.00406462 641.54840137 477.51086624 694.38397634 476.0625 748.875 C476.04209656 749.65663513 476.02169312 750.43827026 476.00067139 751.24359131 C474.18033837 815.74362384 455.75857007 880.52358991 429.0625 938.875 C428.49063965 940.14633789 428.49063965 940.14633789 427.90722656 941.44335938 C421.78140081 955.05997476 414.57031268 967.97715138 407.0625 980.875 C406.65531738 981.58108398 406.24813477 982.28716797 405.82861328 983.01464844 C392.83332868 1005.51685868 377.74948316 1026.96439509 361.0625 1046.875 C359.62496261 1048.66663667 358.18746368 1050.4583042 356.75 1052.25 C353.39289229 1056.35183871 349.91132273 1060.29929825 346.3125 1064.1875 C345.81524414 1064.72656982 345.31798828 1065.26563965 344.80566406 1065.82104492 C342.08779581 1068.75013975 339.3283898 1071.6266383 336.51171875 1074.4609375 C328.65626648 1082.30055008 328.65626648 1082.30055008 324.68359375 1092.46484375 C320.06872484 1110.37285705 298.75496604 1124.14944913 283.8046875 1133.02734375 C262.07608518 1145.68238209 239.63048546 1155.27053241 216.0625 1163.875 C214.39706875 1164.49200758 212.73169492 1165.10917021 211.06640625 1165.7265625 C201.88831772 1169.08834036 192.58800513 1171.81735503 183.14257812 1174.32226562 C181.28548821 1174.81574585 179.43157055 1175.32112868 177.578125 1175.828125 C174.53190466 1176.65636002 171.48107888 1177.46378035 168.42578125 1178.2578125 C166.68764522 1178.71173893 164.95085553 1179.17082857 163.21484375 1179.6328125 C141.58091241 1185.36969144 119.77057548 1189.80195988 97.61328125 1192.9609375 C96.45070801 1193.12827393 95.28813477 1193.29561035 94.09033203 1193.46801758 C91.95680085 1193.76788459 89.82112089 1194.0530738 87.68310547 1194.3190918 C74.63190466 1196.12200296 63.92508122 1201.15309875 55.67480469 1211.63867188 C53.25551895 1214.86108792 50.91737052 1218.14004678 48.57421875 1221.41796875 C42.50976854 1229.84892416 35.14186345 1234.88064336 26.0625 1239.875 C25.33579102 1240.27847656 24.60908203 1240.68195313 23.86035156 1241.09765625 C17.27918208 1244.5828953 10.61368697 1246.70157489 3.4375 1248.625 C2.35726562 1248.92792969 1.27703125 1249.23085937 0.1640625 1249.54296875 C-8.22501143 1251.84484879 -16.24037277 1253.00746528 -24.93359375 1253.18359375 C-26.04704918 1253.20675911 -26.04704918 1253.20675911 -27.18299866 1253.23039246 C-52.82262585 1253.66378575 -81.97700861 1251.96698125 -102.65234375 1234.59375 C-103.36519531 1233.9028125 -104.07804687 1233.211875 -104.8125 1232.5 C-110.85854009 1227.16839498 -118.74310329 1226.97523249 -126.43359375 1225.8671875 C-133.34666049 1224.86768251 -140.12669849 1223.41338185 -146.9375 1221.875 C-148.08686035 1221.61879883 -149.2362207 1221.36259766 -150.42041016 1221.09863281 C-156.42736816 1219.74017496 -162.3406446 1218.23046544 -168.25 1216.5 C-174.24582807 1214.80657439 -179.57799762 1214.7915745 -185.76953125 1214.98046875 C-190.42721601 1214.82540403 -194.11932382 1213.52419182 -197.9375 1210.875 C-198.91976562 1209.71484375 -198.91976562 1209.71484375 -199.921875 1208.53125 C-203.96183002 1204.36698867 -209.7922318 1202.97296126 -215.125 1201.0625 C-217.49344893 1200.18177025 -219.86063696 1199.29764236 -222.2265625 1198.41015625 C-223.3805957 1197.97848145 -224.53462891 1197.54680664 -225.72363281 1197.10205078 C-232.94109943 1194.34643036 -239.94073251 1191.14287553 -246.9375 1187.875 C-248.33403809 1187.22990479 -248.33403809 1187.22990479 -249.75878906 1186.57177734 C-268.75738692 1177.77046106 -287.02249996 1167.95930948 -304.75 1156.8125 C-305.91136475 1156.0855896 -305.91136475 1156.0855896 -307.09619141 1155.34399414 C-310.95930157 1152.8915428 -314.67929001 1150.35063911 -318.30859375 1147.5625 C-328.46941993 1139.91319832 -336.54009576 1137.48494986 -349.16796875 1136.43359375 C-366.78241769 1134.96350456 -387.14424293 1129.38483685 -399.5 1116.125 C-402.42180215 1111.55174445 -402.4185832 1107.13192731 -401.9375 1101.875 C-399.84147444 1095.14565477 -396.60936524 1092.6562435 -390.9375 1088.875 C-391.86691406 1087.9571875 -392.79632812 1087.039375 -393.75390625 1086.09375 C-405.42612015 1074.5241455 -405.42612015 1074.5241455 -410.1171875 1068.97265625 C-412.06512883 1066.72792557 -414.09372904 1064.56800855 -416.13208008 1062.40551758 C-422.34048816 1055.79757295 -428.02768646 1048.92030714 -433.5234375 1041.71289062 C-434.93326755 1039.88050102 -436.36918113 1038.07171353 -437.8125 1036.265625 C-452.66561169 1017.50607995 -466.14788073 997.14399829 -477.66894531 976.17529297 C-479.0279763 973.71093771 -480.41551529 971.26388521 -481.8046875 968.81640625 C-495.125823 945.13608026 -505.81860694 920.44898326 -514.9375 894.875 C-515.49195801 893.32135742 -515.49195801 893.32135742 -516.05761719 891.73632812 C-529.28413517 854.26322556 -538.72167738 815.15711275 -541.67553711 775.4699707 C-541.88366508 772.91469769 -541.88366508 772.91469769 -542.43261719 770.60668945 C-543.16074901 766.66710197 -543.30854541 762.74010497 -543.48828125 758.7421875 C-543.53012039 757.82799042 -543.57195953 756.91379333 -543.61506653 755.97189331 C-544.06677668 745.14500282 -544.12356415 734.31789218 -544.12280273 723.48291016 C-544.1249933 720.01061805 -544.14325183 716.53864284 -544.16210938 713.06640625 C-544.21853313 691.47408856 -542.27080176 670.35327161 -539.1875 649 C-539.05877502 648.09766632 -538.93005005 647.19533264 -538.79742432 646.26565552 C-536.80247507 632.39221808 -534.22489551 618.87535607 -530.57958984 605.32958984 C-529.82274495 602.43631284 -529.18464201 599.52733612 -528.55664062 596.60400391 C-514.50470974 532.17812622 -481.84914723 468.97652985 -441.9375 416.875 C-441.44121094 416.22563477 -440.94492187 415.57626953 -440.43359375 414.90722656 C-431.81697092 403.67861657 -422.7409478 392.8445284 -413.203125 382.38671875 C-411.95385154 381.00174834 -410.71129803 379.61023345 -409.49975586 378.19213867 C-404.73278218 372.62960769 -399.63834493 367.42265013 -394.44946289 362.2565918 C-393.00225615 360.81474779 -391.56047974 359.36762884 -390.11914062 357.91992188 C-384.89455629 352.69158862 -379.5546524 347.67823683 -373.9375 342.875 C-372.32981627 341.42054483 -370.72510285 339.96279105 -369.125 338.5 C-363.87315529 333.77333976 -358.47814912 329.2584988 -352.9375 324.875 C-352.35178223 324.4114209 -351.76606445 323.9478418 -351.16259766 323.47021484 C-334.59105905 310.42926455 -317.40929088 298.15220253 -299.14331055 287.59155273 C-297.98182495 286.91781616 -297.98182495 286.91781616 -296.796875 286.23046875 C-296.12108398 285.84528076 -295.44529297 285.46009277 -294.74902344 285.06323242 C-292.88655667 283.84158474 -291.45129177 282.50182703 -289.9375 280.875 C-291.60425781 279.84052734 -291.60425781 279.84052734 -293.3046875 278.78515625 C-301.85273857 273.41281002 -309.73037978 268.00531254 -316.9375 260.875 C-318.10345703 259.78251953 -318.10345703 259.78251953 -319.29296875 258.66796875 C-324.6576995 253.53687786 -328.95493703 248.13067315 -332.9375 241.875 C-333.52402344 240.97136719 -334.11054687 240.06773437 -334.71484375 239.13671875 C-348.95351534 216.11182093 -353.70933608 187.18686783 -348.75 160.625 C-348.19578727 158.36217751 -347.59328249 156.11050144 -346.9375 153.875 C-346.44443359 152.18503906 -346.44443359 152.18503906 -345.94140625 150.4609375 C-341.23804908 136.04164874 -334.0798978 123.13839967 -323.9375 111.875 C-323.26460937 111.04871094 -322.59171875 110.22242188 -321.8984375 109.37109375 C-309.33060734 94.33206103 -289.87467383 82.70690776 -270.9375 77.875 C-269.8340625 77.57851563 -268.730625 77.28203125 -267.59375 76.9765625 C-246.95068462 72.249474 -222.70860757 72.65486699 -203.171875 81.30078125 C-200.96707929 82.06071216 -200.96707929 82.06071216 -198.88671875 81.3359375 C-196.2088366 79.32886751 -194.80513346 77.00433974 -193 74.1875 C-170.25320795 40.04568493 -132.45436099 13.70268706 -92.9375 2.875 C-92.05771484 2.61557617 -91.17792969 2.35615234 -90.27148438 2.08886719 C-62.41348256 -5.9246987 -28.25403517 -6.9061771 0 0 Z " fill="#FEDA4C" transform="translate(1033.9375,305.125)"/>
<path d="M0 0 C2.31252664 -0.00217934 4.62456949 -0.02036832 6.93701172 -0.03930664 C15.84126222 -0.07341615 24.30933024 0.48148697 33.08154297 2.18530273 C33.82694336 2.32073486 34.57234375 2.45616699 35.34033203 2.59570312 C71.12387698 9.40054351 107.05644234 29.7764625 130.08154297 58.18530273 C130.48872559 58.6801416 130.8959082 59.17498047 131.31542969 59.68481445 C141.42688923 72.01009013 149.27113141 85.07207972 156.21289062 99.3996582 C157.48067617 102.0057806 158.7806753 104.59557541 160.08154297 107.18530273 C163.40708878 105.91755727 166.47549815 104.48602478 169.56591797 102.72436523 C190.90948007 90.82604815 213.5600184 85.64744097 237.95654297 91.87280273 C262.82424497 99.32789998 282.96544379 114.08067384 296.22998047 136.64624023 C307.13679013 157.49343338 310.37871692 181.35383782 304.08154297 204.18530273 C299.74467999 218.01119451 292.5919259 230.28082753 283.08154297 241.18530273 C282.30423828 242.08829102 282.30423828 242.08829102 281.51123047 243.00952148 C272.61188402 252.60203311 261.08624429 259.30889909 249.08154297 264.18530273 C248.34291016 264.50112305 247.60427734 264.81694336 246.84326172 265.14233398 C237.64657876 268.88366994 228.29752356 269.54854438 218.45654297 269.49780273 C216.73467773 269.48934326 216.73467773 269.48934326 214.97802734 269.48071289 C206.00606455 269.35308356 197.77570195 268.54488659 189.08154297 266.18530273 C188.42444336 266.01321289 187.76734375 265.84112305 187.09033203 265.66381836 C175.71007869 262.59389673 165.5684268 257.53703688 155.12158203 252.15454102 C139.15691347 244.02339538 122.2576227 238.19352311 105.08154297 233.18530273 C103.75062134 232.77446737 102.41989733 232.36299135 101.08935547 231.95092773 C92.03138012 229.21600629 82.88775921 227.25703044 73.58154297 225.56030273 C72.53450195 225.36629883 71.48746094 225.17229492 70.40869141 224.97241211 C66.64118744 224.3137966 62.8669478 223.72923655 59.08154297 223.18530273 C58.18960236 223.05648712 57.29766174 222.92767151 56.37869263 222.79495239 C39.97943552 220.49847758 23.83618482 219.7383916 7.28588867 219.84912109 C3.51768596 219.87281127 -0.24980726 219.8696348 -4.01806641 219.86303711 C-35.23936104 219.89926172 -65.52212595 223.1080736 -95.91845703 230.18530273 C-97.75825479 230.60477533 -99.59809789 231.02404913 -101.43798828 231.44311523 C-110.47788054 233.52672907 -119.40770458 235.82392456 -128.28637695 238.51464844 C-131.87290288 239.599271 -135.44092482 240.59223015 -139.10595703 241.37280273 C-145.37559565 242.70895523 -150.65573875 245.0070875 -156.29345703 247.99780273 C-176.76823017 258.55668211 -200.84000121 262.14248888 -223.19189453 255.50170898 C-246.55684674 247.24805186 -266.14664936 233.51671821 -277.91845703 211.18530273 C-278.74796875 209.62875977 -278.74796875 209.62875977 -279.59423828 208.04077148 C-289.91832929 187.26449901 -291.78532333 161.42677004 -284.65478516 139.22631836 C-280.79845858 128.53703116 -275.04269658 119.01473552 -267.91845703 110.18530273 C-267.35513672 109.46987305 -266.79181641 108.75444336 -266.21142578 108.01733398 C-253.40159492 92.50753877 -232.21023374 80.91140663 -212.23095703 78.49780273 C-188.22207018 76.71796412 -169.53061745 81.8921134 -147.91845703 92.18530273 C-147.65677734 91.49049805 -147.39509766 90.79569336 -147.12548828 90.07983398 C-141.89681925 77.54118106 -133.66883082 67.40537754 -124.91845703 57.18530273 C-124.14501953 56.25717773 -123.37158203 55.32905273 -122.57470703 54.37280273 C-98.25930598 26.06532092 -60.64390087 6.41943548 -23.91845703 1.18530273 C-22.65388672 1.00225586 -21.38931641 0.81920898 -20.08642578 0.63061523 C-13.41556701 -0.07952883 -6.70088919 -0.00070491 0 0 Z " fill="#FEFEFE" transform="translate(990.91845703125,319.814697265625)"/>
<path d="M0 0 C2.22970593 4.88559165 3.83060835 9.66996321 5.05078125 14.90625 C5.23016739 15.65612183 5.40955353 16.40599365 5.59437561 17.17858887 C6.17457773 19.61735784 6.74423307 22.05842447 7.3125 24.5 C7.50942444 25.33692383 7.70634888 26.17384766 7.90924072 27.03613281 C11.19707609 41.0248256 14.09283003 55.05934 16.7109375 69.1875 C17.8962116 80.91792972 17.8962116 80.91792972 22 91 C22.49628906 89.82824219 22.99257813 88.65648437 23.50390625 87.44921875 C31.96797721 67.74521431 42.65711906 49.92668377 63 41 C70.84453345 38.38515552 79.49910321 39.37690794 86.91796875 42.8046875 C89.86705096 44.4977816 91.85484827 46.36452788 94 49 C94.64388672 49.73669922 94.64388672 49.73669922 95.30078125 50.48828125 C103.05551615 60.07304208 102.95983074 72.66069454 101.75390625 84.39453125 C101.33036976 86.67813522 100.72138858 88.79052965 100 91 C99.61972656 92.16789062 99.23945312 93.33578125 98.84765625 94.5390625 C90.30426076 119.45652799 75.23369762 139.53066575 51.6171875 151.8203125 C49 153 49 153 47 153 C67.35653636 174.19286434 67.35653636 174.19286434 93.3125 184.5625 C101.17168709 183.36364095 105.62600795 180.30071519 110.46484375 174.1328125 C120.44881262 160.26195498 122.87807689 145.25168148 121.34375 128.70703125 C121.20553436 127.10971308 121.06845853 125.51229598 120.93237305 123.91479492 C120.82570816 122.66815567 120.82570816 122.66815567 120.71688843 121.39633179 C118.65489473 96.83142109 117.45006679 71.84509505 119.8125 47.25 C119.91727661 46.13371216 119.91727661 46.13371216 120.02416992 44.99487305 C120.26953125 43.015625 120.26953125 43.015625 121 40 C127.6163136 35.58912426 138.21782351 34.77746214 146 36 C148.50908249 37.77235004 148.97583208 38.89289785 149.66015625 41.92553711 C149.79292969 43.1141333 149.92570313 44.30272949 150.0625 45.52734375 C150.17727692 46.50708664 150.17727692 46.50708664 150.29437256 47.50662231 C150.54212527 49.64903067 150.77121271 51.7929906 151 53.9375 C151.16722058 55.41670706 151.33552514 56.89579196 151.50488281 58.37475586 C151.93567236 62.16837127 152.35017082 65.96355585 152.75854492 69.75964355 C152.99346062 71.93932391 153.23147712 74.11864045 153.47070312 76.29785156 C154.33710832 84.19615829 155.18165566 92.0965661 156 100 C159.33977888 92.11161761 159.33977888 92.11161761 162.484375 84.14453125 C169.31449345 66.16276879 178.36859315 45.9241405 196.25 36.5625 C203.4508904 33.34477929 210.60078705 32.92582243 218.0625 35.5 C226.97077238 39.40761641 231.41925862 47.31104127 235 56 C237.25324032 63.01164854 238.70974736 70.07626442 239.625 77.375 C239.75124756 78.37176758 239.87749512 79.36853516 240.00756836 80.39550781 C241.20913465 90.97181913 241.39600449 101.55287114 241.61193848 112.184021 C242.0618866 134.29121169 242.8880819 157.7761638 253 178 C255.97 178 258.94 178 262 178 C262.24878906 177.33613281 262.49757813 176.67226562 262.75390625 175.98828125 C264.59010785 171.58485108 266.80417352 167.38476563 268.99023438 163.14648438 C270.02444964 161.11116431 271.02069517 159.06225691 272 157 C272.29422852 156.4030835 272.58845703 155.80616699 272.89160156 155.19116211 C275.70852869 148.77473349 275.5898964 142.09543465 275.875 135.1875 C276.54299424 123.21602474 278.08250122 112.33073663 282 101 C282.3405542 100.00057373 282.3405542 100.00057373 282.68798828 98.98095703 C289.11589432 80.58760611 299.76668289 60.8763367 317.03125 50.81640625 C321.27368906 49.05714085 325.86718894 49.16168235 330.13110352 50.83764648 C336.308755 54.2088893 340.90879487 58.43117943 345.75 63.5 C346.84248047 64.61955078 346.84248047 64.61955078 347.95703125 65.76171875 C349.97840227 67.83444947 351.98969858 69.91654351 354 72 C365.57342241 83.81966544 377.26765968 90.78864966 394.09765625 91.11328125 C397.73332361 91.14174797 401.36525094 91.08937908 405 91 C405.2578125 89.72640625 405.515625 88.4528125 405.78125 87.140625 C406.96127506 81.85526801 408.64221675 76.83179978 410.5 71.75 C410.84385742 70.80850098 411.18771484 69.86700195 411.54199219 68.89697266 C414.15405351 61.91638389 417.07426137 55.11693694 420.25 48.375 C420.66185547 47.49295898 421.07371094 46.61091797 421.49804688 45.70214844 C425.66697883 37.08387824 425.66697883 37.08387824 429 35 C431.85860531 34.98196464 434.16177908 35.15436728 436.9375 35.625 C437.64068359 35.72167969 438.34386719 35.81835938 439.06835938 35.91796875 C448.2823673 37.2823673 448.2823673 37.2823673 451 40 C451.02745685 47.9265821 448.64676283 55.36612021 446.375 62.875 C445.64232343 65.37267099 444.91325313 67.87140223 444.1875 70.37109375 C443.91104141 71.32282219 443.91104141 71.32282219 443.6289978 72.29377747 C433.23649631 108.2713611 426.0790779 144.52995029 425 182 C426.98 182.33 428.96 182.66 431 183 C431.36448242 181.77639771 431.36448242 181.77639771 431.73632812 180.52807617 C433.23899086 176.33275561 435.16867936 172.50040144 437.21875 168.55078125 C437.63612427 167.73868698 438.05349854 166.92659271 438.48352051 166.08988953 C439.81835947 163.4953498 441.15917054 160.903948 442.5 158.3125 C443.37016439 156.62193659 444.23995914 154.93118286 445.109375 153.24023438 C449.44103303 144.82663335 453.81415593 136.4358698 458.23046875 128.06640625 C462.15884315 120.61908563 466.03702947 113.15138793 469.8125 105.625 C470.39290039 104.46959717 470.97330078 103.31419434 471.57128906 102.1237793 C476.67729353 91.88661125 481.36657292 81.47331869 485.91333008 70.97705078 C486.67552856 69.23464111 486.67552856 69.23464111 487.453125 67.45703125 C487.89817383 66.42553955 488.34322266 65.39404785 488.80175781 64.33129883 C490 62 490 62 492 61 C505.47514952 61.07444834 505.47514952 61.07444834 511 65 C514.75959073 69.06407256 514.33359677 72.41308298 514.19921875 77.72021484 C513.95018032 81.82019304 513.46757415 85.85842357 512.93261719 89.9296875 C510.8218409 106.43471922 510.71824222 122.8779495 510.75 139.5 C510.75104736 140.7036319 510.75209473 141.90726379 510.75317383 143.14736938 C510.73243992 165.20364914 510.73243992 165.20364914 512.9375 187.125 C513.09089844 188.15882813 513.24429688 189.19265625 513.40234375 190.2578125 C513.97129255 192.86828344 514.512849 194.78455245 516 197 C519.31809464 198.26006315 519.31809464 198.26006315 523 198 C540.74066042 182.30849814 555.08410008 152.14999411 558.29296875 128.875 C557.942548 122.64529782 554.84961931 118.19341001 551.58837891 113.08105469 C547.06996211 105.83220009 544.37720833 98.17044131 542 90 C541.73316406 89.09378906 541.46632813 88.18757813 541.19140625 87.25390625 C538.34280075 74.97543426 537.68412528 58.70790036 543.51953125 47.34765625 C547.51580467 41.01055777 551.58994172 36.20334476 559 34 C565.24971473 33.13661712 570.50510642 33.72419806 576 37 C582.4105012 42.14384795 584.03997916 49.31068748 586 57 C586.1750708 57.64130859 586.3501416 58.28261719 586.53051758 58.94335938 C589.71111624 72.87646551 586.2982386 88.35204835 583.77880859 102.16137695 C580.91463364 114.11208913 580.91463364 114.11208913 583.6015625 125.4375 C595.45997589 133.16285074 610.40208422 136.81471852 624.2578125 138.5078125 C626.87305139 138.97721435 628.71507978 139.67715145 631 141 C631.31030257 144.41332825 631.46196651 146.33820066 629.46484375 149.19921875 C626.09140805 151.6638049 623.29688518 151.41134242 619.3125 151.0625 C618.56572998 151.00602295 617.81895996 150.9495459 617.04956055 150.89135742 C604.58475836 149.71760052 593.08347435 145.3832246 581.85546875 140.0390625 C578.80580963 138.92933702 577.92751201 138.82022863 575 140 C573.71285943 142.6417028 572.70825503 145.11450383 571.75 147.875 C571.14026507 149.52817322 570.52820919 151.1804919 569.9140625 152.83203125 C569.59985352 153.68748535 569.28564453 154.54293945 568.96191406 155.42431641 C551.64412339 201.79555792 551.64412339 201.79555792 531.4765625 212.31640625 C523.53448058 215.65860202 514.68284943 216.62367126 506.3203125 214.234375 C504.09731238 213.29128404 502.06955087 212.24087179 500 211 C498.96875 210.401875 497.9375 209.80375 496.875 209.1875 C484.06860644 199.4435049 478.06965414 186.03416327 475.37280273 170.36987305 C474.56268631 163.04699352 474.79812936 155.66960052 474.875 148.3125 C474.88505322 146.62826055 474.89417492 144.94401527 474.90234375 143.25976562 C474.92416404 139.17303063 474.95856364 135.08658125 475 131 C474.34 131 473.68 131 473 131 C472.74275146 131.83829346 472.48550293 132.67658691 472.22045898 133.5402832 C470.89656531 137.29321323 469.25040489 140.80410997 467.47265625 144.35546875 C467.1279126 145.05060074 466.78316895 145.74573273 466.42797852 146.46192932 C465.31164732 148.70657964 464.18809504 150.94748194 463.0625 153.1875 C462.67939667 153.95155151 462.29629333 154.71560303 461.90158081 155.50280762 C454.55831926 170.12291408 447.03034 184.51586362 437.625 197.9375 C437.2319165 198.49985352 436.83883301 199.06220703 436.43383789 199.64160156 C432.87343038 204.53459922 428.89501508 208.31570998 423 210 C415.82523996 210.86097121 409.28975047 208.42732794 403.1015625 204.92578125 C396.18134696 199.35799362 395.18226998 187.23473487 394 179 C393.80850497 174.44338381 393.81419037 169.88720535 393.81469727 165.32714844 C393.81254072 163.16580594 393.79444011 161.00500038 393.77539062 158.84375 C393.73570453 149.07922751 394.56200043 139.65314555 396 130 C396.13108154 129.08798828 396.26216309 128.17597656 396.3972168 127.23632812 C396.72199654 125.04900817 397.07062197 122.86811354 397.4375 120.6875 C397.62372925 119.57012451 397.62372925 119.57012451 397.8137207 118.43017578 C398.83628421 112.51020624 400.217125 106.74060462 402 101 C401.07832031 101.15984375 400.15664062 101.3196875 399.20703125 101.484375 C394.04681177 102.21580596 388.89116375 102.22298552 383.6875 102.25 C382.21506836 102.2809375 382.21506836 102.2809375 380.71289062 102.3125 C374.72653921 102.34419478 369.72793523 101.63098087 364.06958008 99.64746094 C361.88422282 98.85071186 361.88422282 98.85071186 359 99 C359.24169922 100.33804687 359.24169922 100.33804687 359.48828125 101.703125 C360.29128352 107.35967194 360.18425287 113.04804721 360.1875 118.75 C360.19974609 119.86632813 360.21199219 120.98265625 360.22460938 122.1328125 C360.24242351 132.322498 358.92628421 141.628777 355.1875 151.125 C354.92179199 151.81021729 354.65608398 152.49543457 354.38232422 153.20141602 C349.20412394 166.27706896 342.81033356 175.80865275 329.734375 181.90625 C319.21338302 186.11464679 308.22744962 184.33729539 298 180 C292.55438036 176.87316034 288.90705591 172.82636318 285 168 C284.34 168 283.68 168 283 168 C282.67128906 168.70125 282.34257813 169.4025 282.00390625 170.125 C277.36153178 179.38458702 272.06242253 185.75086226 262.1875 189.4375 C260.46840977 189.99068488 258.73958722 190.51510719 257 191 C255.98292969 191.28810547 255.98292969 191.28810547 254.9453125 191.58203125 C249.60819174 192.72876202 243.69033822 192.71903798 238.75 190.203125 C225.82652369 181.31823504 222.19612551 163.73360582 219.38623047 149.16113281 C216.85866546 135.01827224 216.65178311 120.68361236 216.34106445 106.35571289 C215.89676052 86.21490002 213.40007427 68.2002228 207 49 C204.21160696 48.49734308 204.21160696 48.49734308 201 49 C184.05694482 67.01709988 177.40528023 93.26645911 172.48388672 116.73925781 C172.01415615 118.93386177 171.51374559 121.11909329 171.00390625 123.3046875 C167.01986214 140.71356508 164.87157959 158.50426127 163.1875 176.26953125 C163.12309219 176.93843384 163.05868439 177.60733643 162.99232483 178.29650879 C162.68423179 181.51264919 162.39277183 184.72880576 162.12670898 187.94873047 C162.02173096 189.0935791 161.91675293 190.23842773 161.80859375 191.41796875 C161.72407959 192.42625732 161.63956543 193.4345459 161.55249023 194.47338867 C160.93077845 197.31655935 160.33183674 198.30229264 158 200 C154.890625 200.73046875 154.890625 200.73046875 151.25 201.1875 C150.05890625 201.34605469 148.8678125 201.50460937 147.640625 201.66796875 C137.92041748 202.55446836 137.92041748 202.55446836 134.73046875 200.6328125 C132.12417867 196.66748628 131.3233865 192.47112063 130.3125 187.875 C129.89363653 186.05950059 129.47314274 184.24437631 129.05078125 182.4296875 C128.87200439 181.62772949 128.69322754 180.82577148 128.5090332 179.99951172 C128.06184525 177.94641866 128.06184525 177.94641866 127 176 C126.236875 176.99 125.47375 177.98 124.6875 179 C117.051808 187.83379823 104.52758559 196.23856423 92.58666992 197.19287109 C67.82634512 197.89129892 67.82634512 197.89129892 56 192 C54.68391042 191.36913061 53.36748917 190.7389528 52.05078125 190.109375 C48.66771572 188.46750153 45.32642147 186.75420707 42 185 C42.25394531 186.12535156 42.50789062 187.25070312 42.76953125 188.41015625 C44.75241755 197.24081617 46.65455715 206.07756125 48.38671875 214.9609375 C48.73814151 216.70238278 49.11382643 218.44018193 49.55859375 220.16015625 C50.38999358 223.62554847 50.34066438 226.42302404 50 230 C44.76943691 235.06183525 35.84304703 235.10822337 29 235 C21.3194594 219.66919973 14.63217933 204.19833394 9 188 C8.59491211 186.83597656 8.18982422 185.67195313 7.77246094 184.47265625 C4.7931563 175.73699872 2.26776623 166.9511981 0 158 C-0.17052887 157.33224548 -0.34105774 156.66449097 -0.51675415 155.97650146 C-5.45255881 136.63631096 -9.44262056 117.12083744 -13.29614258 97.54052734 C-13.82758583 94.86727379 -14.36701472 92.19619626 -14.9128418 89.52587891 C-17.22201806 78.18672911 -19.31125943 66.82386366 -21.23754883 55.41357422 C-21.69447922 52.70868517 -22.1565193 50.00470223 -22.61914062 47.30078125 C-22.91696138 45.54952926 -23.21449826 43.79822897 -23.51171875 42.046875 C-23.6471257 41.25408142 -23.78253265 40.46128784 -23.92204285 39.64447021 C-25.23542863 31.83915266 -26.22118831 24.10880198 -26.375 16.1875 C-26.41238281 15.43791016 -26.44976563 14.68832031 -26.48828125 13.91601562 C-26.5234375 11.73046875 -26.5234375 11.73046875 -26 8 C-23.8203125 6.12109375 -23.8203125 6.12109375 -21 5 C-20.1028125 4.62617187 -19.205625 4.25234375 -18.28125 3.8671875 C-17.3634375 3.53976562 -16.445625 3.21234375 -15.5 2.875 C-14.5821875 2.54242187 -13.664375 2.20984375 -12.71875 1.8671875 C-8.39858835 0.4892049 -4.53277531 -0.12950787 0 0 Z " fill="#632A06" transform="translate(704,1052)"/>
<path d="M0 0 C3.47727991 0.5756496 6.96169013 1.09001819 10.44824219 1.60644531 C44.33754338 6.77343353 75.44863915 17.00321103 106.04980469 32.50488281 C102.32154113 56.54134272 96.58577591 80.05483163 89.68017578 103.36669922 C88.82098637 106.28102177 87.99855978 109.20537237 87.17480469 112.12988281 C82.93976649 126.96145119 78.4922833 141.73432216 74.04980469 156.50488281 C70.84825308 155.27566579 67.86877377 153.8977621 64.86230469 152.25488281 C49.20039015 144.45832214 32.19156485 141.26409663 15.04980469 138.50488281 C13.3134375 138.20638428 13.3134375 138.20638428 11.54199219 137.90185547 C-9.47668402 134.40732883 -30.53645097 134.10711848 -51.78993607 134.07187271 C-53.9771597 134.06745459 -56.16432621 134.05838906 -58.35153198 134.04867554 C-75.77536017 133.98732761 -92.87775174 134.71579694 -110.16593933 137.12016296 C-113.89205546 137.63502612 -117.62414216 138.09745859 -121.35702515 138.56027222 C-138.94685724 140.83803118 -158.30609758 144.61974214 -173.77441406 153.68847656 C-176.95019531 155.50488281 -176.95019531 155.50488281 -178.95019531 155.50488281 C-186.45502631 111.79342023 -193.6928722 66.98297614 -192.95019531 22.50488281 C-182.15672871 17.82288002 -171.0059654 15.01101853 -159.61962891 12.17626953 C-157.40707164 11.61979135 -155.20285177 11.04320049 -153.00097656 10.44628906 C-104.22993749 -2.48420645 -49.9937643 -8.27802131 0 0 Z " fill="#FEDA4C" transform="translate(1040.9501953125,559.4951171875)"/>
<path d="M0 0 C0.89895996 0.21881836 1.79791992 0.43763672 2.72412109 0.66308594 C50.05222968 12.58398246 92.5837353 41.86288078 118.03564453 83.91821289 C120.40403625 87.88875195 122.74719662 91.87327808 125.0625 95.875 C132.06597673 93.80885198 132.06597673 93.80885198 139.01171875 91.55859375 C167.40387727 82.09454091 197.34749504 84.36255286 224.14916992 97.74511719 C231.08016325 101.38528161 237.19267446 105.69574217 243.0625 110.875 C243.88105469 111.56207031 244.69960937 112.24914062 245.54296875 112.95703125 C257.17060478 122.96220644 265.20469067 134.31304772 272.0625 147.875 C272.55621094 148.84824219 273.04992188 149.82148438 273.55859375 150.82421875 C284.84386837 175.4690085 285.30503523 204.30913975 276.9375 229.875 C265.25093395 260.20442141 244.29323467 282.01047732 214.7421875 295.28125 C213.51630077 295.81405752 212.28982403 296.34551171 211.0625 296.875 C210.26714844 297.23335937 209.47179688 297.59171875 208.65234375 297.9609375 C183.09738047 306.98033631 155.00403952 304.23430026 130.0625 294.875 C129.93375488 295.74656738 129.80500977 296.61813477 129.67236328 297.51611328 C128.65846433 303.1002693 126.7379373 308.37656629 124.9375 313.75 C124.72208557 314.3944809 124.50667114 315.03896179 124.284729 315.70297241 C114.19107266 345.80456156 102.42039127 375.34467922 90.80325317 404.88243103 C89.21338707 408.92725393 87.63524927 412.97617816 86.07421875 417.03222656 C85.59148499 418.28388107 85.59148499 418.28388107 85.09899902 419.56082153 C84.4829032 421.15995438 83.86895876 422.75991819 83.25744629 424.36080933 C81.17373121 429.76376879 81.17373121 429.76376879 80.0625 430.875 C77.25 431.1875 77.25 431.1875 74.0625 430.875 C72.71796278 429.5529655 71.38610136 428.21799479 70.0625 426.875 C51.14002356 415.26010473 27.7945895 412.04417699 6.1875 409.125 C5.34703125 409.00946777 4.5065625 408.89393555 3.640625 408.77490234 C-12.97292602 406.6950524 -29.78351046 406.66886112 -46.5 406.6875 C-47.50874176 406.68810425 -48.51748352 406.6887085 -49.55679321 406.68933105 C-65.09991256 406.71453071 -80.48751101 407.01696211 -95.9375 408.875 C-97.02933594 409.00390625 -98.12117187 409.1328125 -99.24609375 409.265625 C-133.87184752 413.20615891 -133.87184752 413.20615891 -164.4140625 428.640625 C-165.9375 429.875 -165.9375 429.875 -167.9375 430.875 C-168.08783691 430.34358398 -168.23817383 429.81216797 -168.39306641 429.26464844 C-171.20491125 419.33923997 -174.05602438 409.43084816 -177.0625 399.5625 C-179.05165016 393.00933053 -180.86084195 386.44398577 -182.47583008 379.78930664 C-183.6417936 374.9984192 -184.91683065 370.24695533 -186.25 365.5 C-187.14655022 362.2918667 -188.0422966 359.08350937 -188.9375 355.875 C-189.2046582 354.91835449 -189.47181641 353.96170898 -189.74707031 352.97607422 C-193.20268708 340.54572706 -196.4448644 328.09468274 -199.25 315.5 C-199.49226318 314.41404541 -199.73452637 313.32809082 -199.98413086 312.20922852 C-204.10333941 293.32891683 -204.10333941 293.32891683 -203.9375 284.875 C-205.09507812 285.22433594 -206.25265625 285.57367187 -207.4453125 285.93359375 C-208.98431839 286.39341868 -210.52338407 286.85304352 -212.0625 287.3125 C-213.20332031 287.65764648 -213.20332031 287.65764648 -214.3671875 288.00976562 C-215.11484375 288.23212891 -215.8625 288.45449219 -216.6328125 288.68359375 C-217.31359863 288.88782959 -217.99438477 289.09206543 -218.69580078 289.30249023 C-235.80755764 293.67267863 -258.27222 292.60369 -274.9375 286.875 C-276.175 286.47410156 -277.4125 286.07320312 -278.6875 285.66015625 C-293.17307948 280.45440112 -306.029742 271.66651192 -316.9375 260.875 C-317.71480469 260.14667969 -318.49210938 259.41835938 -319.29296875 258.66796875 C-324.6576995 253.53687786 -328.95493703 248.13067315 -332.9375 241.875 C-333.52402344 240.97136719 -334.11054687 240.06773437 -334.71484375 239.13671875 C-348.95351534 216.11182093 -353.70933608 187.18686783 -348.75 160.625 C-348.19578727 158.36217751 -347.59328249 156.11050144 -346.9375 153.875 C-346.44443359 152.18503906 -346.44443359 152.18503906 -345.94140625 150.4609375 C-341.23804908 136.04164874 -334.0798978 123.13839967 -323.9375 111.875 C-323.26460937 111.04871094 -322.59171875 110.22242188 -321.8984375 109.37109375 C-309.33060734 94.33206103 -289.87467383 82.70690776 -270.9375 77.875 C-269.8340625 77.57851563 -268.730625 77.28203125 -267.59375 76.9765625 C-246.95068462 72.249474 -222.70860757 72.65486699 -203.171875 81.30078125 C-200.96707929 82.06071216 -200.96707929 82.06071216 -198.88671875 81.3359375 C-196.2088366 79.32886751 -194.80513346 77.00433974 -193 74.1875 C-170.25320795 40.04568493 -132.45436099 13.70268706 -92.9375 2.875 C-92.05771484 2.61557617 -91.17792969 2.35615234 -90.27148438 2.08886719 C-62.41348256 -5.9246987 -28.25403517 -6.9061771 0 0 Z M-153.75 57.84375 C-155.7364674 59.68832687 -157.78242731 61.40369021 -159.875 63.125 C-172.68437824 74.33320596 -183.20888672 89.84023783 -190.9375 104.875 C-190.9375 105.535 -190.9375 106.195 -190.9375 106.875 C-191.49622803 106.61807373 -192.05495605 106.36114746 -192.63061523 106.09643555 C-195.20991186 104.91367005 -197.79241207 103.73806049 -200.375 102.5625 C-201.25349609 102.15837891 -202.13199219 101.75425781 -203.03710938 101.33789062 C-224.39681044 91.64326615 -248.52847646 89.51405453 -271 97.0625 C-281.70083451 101.15328987 -291.18944858 106.49005718 -299.9375 113.875 C-300.53949219 114.34421875 -301.14148438 114.8134375 -301.76171875 115.296875 C-317.03422282 127.51487826 -328.23580133 148.07083779 -330.70605469 167.38769531 C-333.10589811 193.1784177 -329.41063752 217.36475226 -313.1953125 238.25390625 C-298.01332649 255.87866856 -277.56969699 270.07316907 -253.9375 272.875 C-240.09114881 273.87478111 -227.12842096 273.34006838 -213.9375 268.875 C-212.8134375 268.50117187 -211.689375 268.12734375 -210.53125 267.7421875 C-204.7517713 265.6643273 -199.47753643 263.13349462 -194.125 260.125 C-189.01830237 257.28455216 -185.68479807 256.33113477 -179.9375 255.875 C-178.23688876 255.35347922 -176.55058809 254.78454863 -174.875 254.1875 C-149.40297545 245.38865297 -122.28161197 240.80875237 -95.625 237.3125 C-94.70783203 237.18681641 -93.79066406 237.06113281 -92.84570312 236.93164062 C-55.33191852 231.99357525 -14.19294755 232.09480378 23.0625 238.875 C24.32562012 239.09994141 25.58874023 239.32488281 26.89013672 239.55664062 C42.24609508 242.35740077 57.25591894 245.93539487 72.0625 250.875 C72.88508301 251.14425293 73.70766602 251.41350586 74.55517578 251.69091797 C88.73897865 256.35710854 102.30236004 262.00019967 115.66796875 268.65234375 C127.24713818 274.3893704 138.38192137 279.21926961 151.0625 281.875 C152.30205444 282.14775757 152.30205444 282.14775757 153.56665039 282.42602539 C160.74260163 283.8876612 167.68928315 284.20904012 175 284.1875 C176.08990234 284.20361328 177.17980469 284.21972656 178.30273438 284.23632812 C202.23142432 284.250546 222.89083779 272.67658808 239.60546875 256.3984375 C248.52603127 246.97119931 254.58010725 235.98772546 259.0625 223.875 C259.35898438 223.10671875 259.65546875 222.3384375 259.9609375 221.546875 C267.55042668 200.65699388 264.93872864 176.84371835 255.98974609 156.79052734 C251.24616579 146.99112474 244.6150408 138.66663427 237.0625 130.875 C236.52496094 130.26398438 235.98742188 129.65296875 235.43359375 129.0234375 C222.82505123 115.18248105 201.58425341 106.04700652 183.09106445 104.65063477 C159.96276733 103.81687033 144.34041788 107.2710507 124.28808594 118.70166016 C121.93413947 119.9426723 119.54749763 120.92768348 117.0625 121.875 C116.58941406 120.82183594 116.11632813 119.76867187 115.62890625 118.68359375 C107.42871339 100.68855101 97.60030626 84.72001162 84.1171875 70.1171875 C82.34560243 68.18393687 80.66467659 66.21210666 79 64.1875 C68.50383064 51.92295428 54.05159567 42.66497693 40.0625 34.875 C38.43441406 33.96621094 38.43441406 33.96621094 36.7734375 33.0390625 C-24.36083695 0.7940156 -103.08628707 10.51317608 -153.75 57.84375 Z M-126.375 260.25 C-127.30246033 260.43255341 -128.22992065 260.61510681 -129.18548584 260.80319214 C-158.31352317 266.42136265 -158.31352317 266.42136265 -185.9375 276.875 C-186.67495285 321.04023164 -180.13444392 366.55483829 -171.9375 409.875 C-168.65924909 408.60301552 -165.52545202 407.18206031 -162.375 405.625 C-157.07970687 403.20633908 -151.68804724 401.42802012 -146.125 399.75 C-145.332146 399.50862305 -144.53929199 399.26724609 -143.72241211 399.01855469 C-131.6073107 395.45865553 -119.32171629 393.35046268 -106.8125 391.75 C-105.54535156 391.58113281 -104.27820313 391.41226563 -102.97265625 391.23828125 C-90.39835807 389.59365111 -78.02323226 388.7110293 -65.33984375 388.63671875 C-64.66031647 388.63187469 -63.98078918 388.62703064 -63.28067017 388.62203979 C-58.14545311 388.58589459 -53.01033276 388.56974589 -47.875 388.5625 C-47.12203266 388.56120213 -46.36906532 388.55990425 -45.59328079 388.55856705 C-22.79527884 388.52875223 -0.46530785 389.0346383 22.0625 392.875 C23.23216309 393.05691895 24.40182617 393.23883789 25.60693359 393.42626953 C43.14810659 396.16577722 62.57796896 399.72745572 77.48193359 409.921875 C79.04033103 411.0471336 79.04033103 411.0471336 81.0625 410.875 C83.66692711 402.59259826 86.13275427 394.27252476 88.5625 385.9375 C88.84681885 384.96232422 89.1311377 383.98714844 89.42407227 382.98242188 C100.90708549 343.61461442 100.90708549 343.61461442 110.1875 303.6875 C110.4125975 302.57695251 110.4125975 302.57695251 110.64224243 301.44396973 C112.33253606 294.20893499 112.33253606 294.20893499 113.0625 286.875 C83.77845911 272.06516879 54.17948058 262.0786158 21.875 256.625 C21.13766632 256.49975952 20.40033264 256.37451904 19.64065552 256.2454834 C-0.38604285 252.88318005 -20.1300722 251.45718302 -40.4375 251.5 C-41.55199524 251.50154083 -42.66649048 251.50308167 -43.8147583 251.50466919 C-72.03031958 251.59690976 -98.7217015 254.79699074 -126.375 260.25 Z " fill="#642B08" transform="translate(1033.9375,305.125)"/>
<path d="M0 0 C0.81033691 0.24137695 1.62067383 0.48275391 2.45556641 0.73144531 C29.64037601 8.96299116 51.27052912 23.97384414 65.06933594 49.2265625 C75.91699447 69.89744173 73.50775812 94.56626615 72.5 117.0625 C72.09050944 126.39858308 71.80382644 135.73207068 71.71289062 145.07662964 C71.69626181 146.5000124 71.6726017 147.92333449 71.64111328 149.34646606 C71.39933475 160.74248653 72.00349019 172.18589677 80 181 C82.40073004 182.38867594 82.40073004 182.38867594 85 183.25 C85.845625 183.56453125 86.69125 183.8790625 87.5625 184.203125 C89.69691046 184.90091303 91.81330122 185.49381973 94 186 C94 186.66 94 187.32 94 188 C93.07888428 188.47308594 92.15776855 188.94617188 91.20874023 189.43359375 C87.7135117 191.22914082 84.21907776 193.02622989 80.72485352 194.82373047 C79.22701502 195.59399259 77.7289757 196.36386434 76.23071289 197.13330078 C67.75503901 201.48636591 59.29802365 205.86712569 50.91331482 210.39355469 C34.36580225 219.29573178 34.36580225 219.29573178 26 217 C16.99665681 211.62428122 12.96707558 203.73510573 10.45556641 193.85913086 C8.42837367 184.45708772 8.54613198 174.88608668 8.375 165.3125 C8.33673855 163.53188365 8.29768235 161.75128419 8.2578125 159.97070312 C8.16271307 155.6472756 8.0783648 151.3237619 8 147 C7.53126465 147.70600342 7.0625293 148.41200684 6.57958984 149.1394043 C2.88156102 154.69912752 -0.8335415 160.24633497 -4.5859375 165.76953125 C-4.97394531 166.34064636 -5.36195312 166.91176147 -5.76171875 167.50018311 C-7.38530158 169.88869121 -9.0098784 172.27651817 -10.63586426 174.66339111 C-15.00048919 181.07077785 -19.3425687 187.48599989 -23.53955078 194.00512695 C-30.23650588 204.35042326 -37.92313176 210.9548024 -50.0625 214.3125 C-65.68921189 217.19402134 -81.77788902 215.05297689 -95 206 C-106.61710893 196.76494811 -111.91880866 183.39328589 -114 169 C-115.81980107 151.03629841 -111.293195 134.11536454 -100.125 119.75 C-98.76974806 118.14973076 -97.39533964 116.56543819 -96 115 C-95.39542969 114.31292969 -94.79085937 113.62585938 -94.16796875 112.91796875 C-77.54319962 95.17321517 -53.33353162 85.18220714 -29.33544922 84.36132812 C-15.6026591 84.18360339 -3.78010424 86.00103024 9 91 C5.14237443 78.66270899 0.19448975 67.41894515 -11 60 C-26.70845643 52.2165306 -45.00182445 51.40678754 -61.76171875 56.6640625 C-66.98257593 58.81790225 -71.49077871 61.62190541 -76 65 C-76.61617187 65.44601562 -77.23234375 65.89203125 -77.8671875 66.3515625 C-80.51562684 68.39389134 -82.45825962 70.52390042 -84.25 73.3125 C-84.8275 74.199375 -85.405 75.08625 -86 76 C-86.66 76 -87.32 76 -88 76 C-88.46148438 75.04222656 -88.92296875 74.08445312 -89.3984375 73.09765625 C-96.32736248 58.88424542 -103.96905341 45.29160015 -113.48046875 32.63671875 C-115 30 -115 30 -114.86328125 27.78515625 C-113.48996628 24.94531489 -111.2947007 23.08912219 -109 21 C-108.41605469 20.4121875 -107.83210937 19.824375 -107.23046875 19.21875 C-80.61501823 -6.42979122 -34.13472183 -10.65143112 0 0 Z " fill="#622A06" transform="translate(1041,753)"/>
<path d="M0 0 C11.09832557 9.71103488 20.1122399 22.37964455 21.79467773 37.41015625 C21.93188982 40.15390165 21.96396506 42.8707599 21.93359375 45.61767578 C21.92223389 47.0644873 21.92223389 47.0644873 21.91064453 48.54052734 C21.57557397 63.05372981 15.71442175 74.93264983 5.87890625 85.51611328 C-16.27608879 106.21832176 -48.53120577 110.66173422 -77.50390625 113.74267578 C-79.35815512 113.95027616 -81.21234125 114.15843961 -83.06640625 114.36767578 C-84.76796875 114.55330078 -84.76796875 114.55330078 -86.50390625 114.74267578 C-81.0111246 126.60474678 -76.28166353 133.71380795 -64.50390625 139.74267578 C-63.77429688 140.12037109 -63.0446875 140.49806641 -62.29296875 140.88720703 C-51.6857282 144.14068838 -37.24128734 142.7753193 -27.50390625 137.74267578 C-17.07340798 131.7440807 -10.668656 123.48157618 -5.50390625 112.74267578 C-2.17954404 113.85079652 -1.57705293 114.59804206 0.55859375 117.24267578 C8.64566173 126.70555201 18.52516093 133.93618192 28.49707031 141.26757812 C31.84562257 143.73850542 35.17047003 146.2410175 38.49609375 148.74267578 C28.16738004 172.53794027 9.3226064 188.02878985 -14.50390625 197.74267578 C-17.80114374 198.94626861 -21.10200194 199.88453776 -24.50390625 200.74267578 C-25.91542969 201.16033203 -25.91542969 201.16033203 -27.35546875 201.58642578 C-51.44068322 207.91538725 -79.96332106 204.47334408 -101.96484375 192.92626953 C-130.5687084 176.11045836 -144.39020092 150.00265914 -152.890625 118.80908203 C-160.42511183 88.29894544 -155.55378338 56.05289575 -139.96875 29.08642578 C-124.62156375 4.80452665 -99.81405505 -8.83866778 -72.50390625 -15.25732422 C-47.43333694 -20.28859012 -20.15552054 -16.85080045 0 0 Z " fill="#622906" transform="translate(884.50390625,776.25732421875)"/>
<path d="M0 0 C4.62379063 5.1021138 4.46650027 10.62157339 4.3984375 17.23046875 C3.26272975 27.97515481 -3.68676669 35.59865545 -11 43 C-11.92232422 44.01320313 -11.92232422 44.01320313 -12.86328125 45.046875 C-36.51900237 70.37419954 -74.23093635 83.40138972 -106 95 C-107.66543125 95.61700758 -109.33080508 96.23417021 -110.99609375 96.8515625 C-120.17418228 100.21334036 -129.47449487 102.94235503 -138.91992188 105.44726562 C-140.77701179 105.94074585 -142.63092945 106.44612868 -144.484375 106.953125 C-147.53059534 107.78136002 -150.58142112 108.58878035 -153.63671875 109.3828125 C-155.37485478 109.83673893 -157.11164447 110.29582857 -158.84765625 110.7578125 C-180.48158759 116.49469144 -202.29192452 120.92695988 -224.44921875 124.0859375 C-225.61179199 124.25327393 -226.77436523 124.42061035 -227.97216797 124.59301758 C-230.10569915 124.89288459 -232.24137911 125.1780738 -234.37939453 125.4440918 C-247.43059534 127.24700296 -258.13741878 132.27809875 -266.38769531 142.76367188 C-268.80698105 145.98608792 -271.14512948 149.26504678 -273.48828125 152.54296875 C-279.55273146 160.97392416 -286.92063655 166.00564336 -296 171 C-296.72670898 171.40347656 -297.45341797 171.80695313 -298.20214844 172.22265625 C-304.78331792 175.7078953 -311.44881303 177.82657489 -318.625 179.75 C-319.70523437 180.05292969 -320.78546875 180.35585937 -321.8984375 180.66796875 C-330.28751143 182.96984879 -338.30287277 184.13246528 -346.99609375 184.30859375 C-347.73839737 184.32403732 -348.48070099 184.3394809 -349.24549866 184.35539246 C-378.54826532 184.85070475 -409.72643727 181.31274237 -432 160 C-432.69867187 159.4121875 -433.39734375 158.824375 -434.1171875 158.21875 C-441.49547358 151.647899 -446.61299644 143.16966418 -447.64453125 133.29296875 C-448.36117571 120.4827893 -445.10943957 111.61380765 -436.8125 101.75 C-425.07038103 89.51862607 -410.23201364 82.31916205 -394 78 C-392.9790625 77.71253906 -391.958125 77.42507813 -390.90625 77.12890625 C-360.95508186 69.06216122 -323.69088715 72.34705768 -296.34887695 87.45239258 C-293.76779652 88.93865674 -291.20865672 90.45765931 -288.66162109 92.00146484 C-274.01394715 100.8038431 -261.01536441 101.37121561 -244.625 97.375 C-242.92404175 96.97112061 -242.92404175 96.97112061 -241.1887207 96.55908203 C-231.84060245 94.29776901 -222.6279466 91.67635172 -213.46069336 88.7734375 C-210.65116168 87.89035422 -207.83332533 87.03634213 -205.015625 86.1796875 C-167.5040122 74.6288638 -131.37086202 59.99288404 -96 43 C-95.05850098 42.54850586 -94.11700195 42.09701172 -93.14697266 41.63183594 C-79.70228342 35.14386968 -66.66513296 28.03475917 -53.73681641 20.57568359 C-51.11584534 19.06669633 -48.48707385 17.57237644 -45.85546875 16.08203125 C-37.59111725 11.37944806 -29.5112844 6.5383622 -21.71679688 1.08325195 C-14.62101112 -3.82493623 -7.59638356 -4.83406227 0 0 Z " fill="#622A06" transform="translate(1356,1374)"/>
<path d="M0 0 C-2.71438124 3.44675203 -6.45260228 4.52918066 -10.4375 5.96875 C-11.55370476 6.38379288 -11.55370476 6.38379288 -12.69245911 6.80722046 C-14.29296621 7.40183629 -15.89476752 7.99297784 -17.49771118 8.58099365 C-21.71795895 10.13094842 -25.926861 11.71115147 -30.13671875 13.2890625 C-30.97965988 13.60440948 -31.82260101 13.91975647 -32.69108582 14.24465942 C-47.50684112 19.79932165 -62.31890275 25.52644429 -76.5625 32.4375 C-77.20614502 32.74349121 -77.84979004 33.04948242 -78.51293945 33.36474609 C-81.86696144 35.06268739 -83.77879109 36.36830029 -85 40 C-61.86486391 40.85984246 -37.98773521 29.33835466 -16.6484375 21.58203125 C-15.77949356 21.2665181 -14.91054962 20.95100494 -14.01527405 20.62593079 C-10.33593558 19.27666917 -6.70389586 17.8945258 -3.12353516 16.29956055 C0.55819802 14.76775926 3.04640408 14.56071156 7 15 C10.62416894 16.64734952 13.12851416 18.45402683 15 22 C15.64276203 26.3386437 15.45077248 28.31120175 13.03222656 32.00683594 C9.68237147 35.80298323 5.70702478 37.01539342 0.984375 38.515625 C0.10401581 38.81309631 -0.77634338 39.11056763 -1.68338013 39.41705322 C-3.5624611 40.05025747 -5.4443759 40.67510397 -7.32879639 41.29223633 C-12.23024248 42.8992544 -17.10953466 44.57131787 -21.9921875 46.234375 C-22.9516629 46.55929932 -23.91113831 46.88422363 -24.89968872 47.21899414 C-52.16723013 55.26439339 -52.16723013 55.26439339 -75 71 C-75 71.66 -75 72.32 -75 73 C-66.64633174 73.3798373 -59.55280274 72.53379293 -51.5625 70.125 C-50.50337402 69.81691406 -49.44424805 69.50882813 -48.35302734 69.19140625 C-30.51173327 63.89740772 -12.91634247 57.64583548 4.45654297 50.98046875 C7.4507751 49.84613271 9.76825724 49 13 49 C12.59270201 54.90582084 11.82187231 58.27294741 8 63 C7.58492187 63.54269531 7.16984375 64.08539062 6.7421875 64.64453125 C3.09226878 68.8772904 -1.21565437 71.33993709 -6.18359375 73.765625 C-6.88485886 74.11154694 -7.58612396 74.45746887 -8.30863953 74.81387329 C-16.17830751 78.64701275 -24.22097057 82.04264121 -32.3125 85.375 C-33.47230881 85.85557358 -33.47230881 85.85557358 -34.6555481 86.34585571 C-102.17224926 114.30299762 -102.17224926 114.30299762 -120.125 107.875 C-121.4317962 107.28228466 -122.72191775 106.65232932 -124 106 C-135.59919913 100.3016015 -146.03619645 96.8259095 -159 96.5 C-159.69891357 96.46922363 -160.39782715 96.43844727 -161.11791992 96.40673828 C-168.33269166 96.40508598 -174.44546177 99.22292808 -181 102 C-182.02883301 102.42796875 -183.05766602 102.8559375 -184.11767578 103.296875 C-186.18698075 104.15944152 -188.25491205 105.02531007 -190.3215332 105.89428711 C-208.76458155 113.60910801 -227.61975479 119.66629492 -246.8449707 125.10473633 C-249.33330426 125.81081999 -251.81407059 126.53532309 -254.29296875 127.2734375 C-305.29409561 141.98104215 -380.96890746 152.90598024 -430 127 C-436.34910757 123.1622386 -442.55662204 119.33013389 -445 112 C-445.60277077 106.0186593 -445.02557945 101.32084663 -442 96 C-438.35556504 92.62223101 -435.88496983 90.85754861 -430.9375 90.875 C-429.86822266 90.87113281 -429.86822266 90.87113281 -428.77734375 90.8671875 C-426.45660455 90.97816518 -424.21432181 91.19723569 -421.91015625 91.47387695 C-404.19753049 93.46675735 -386.23384294 93.20477757 -368.4375 93.1875 C-366.55791092 93.18609512 -366.55791092 93.18609512 -364.64035034 93.18466187 C-252.95518787 94.98774402 -252.95518787 94.98774402 -154.3671875 55.6875 C-151.21128966 52.10456648 -148.80394137 48.22580489 -146.3125 44.16748047 C-139.64430108 33.42200432 -130.96221586 27.71657319 -120 22 C-119.29101562 21.61199219 -118.58203125 21.22398438 -117.8515625 20.82421875 C-106.55067193 14.82833139 -94.02286847 10.81961757 -81.875 6.9375 C-81.21000488 6.72344513 -80.54500977 6.50939026 -79.85986328 6.28884888 C-53.54207869 -2.15713191 -27.11246078 -8.70084701 0 0 Z " fill="#632A06" transform="translate(1077,1304)"/>
<path d="M0 0 C-0.56777379 11.01849283 -2.54071595 21.77743538 -4.4375 32.625 C-4.75369775 34.46086133 -5.06945585 36.29679845 -5.38476562 38.1328125 C-5.69230364 39.91413242 -6.00023306 41.69538481 -6.30859375 43.4765625 C-6.44825058 44.28412994 -6.58790741 45.09169739 -6.73179626 45.92373657 C-7.73140923 51.63464348 -8.84089078 57.31940573 -10 63 C-9.25641235 63.05036407 -8.51282471 63.10072815 -7.7467041 63.15261841 C1.33436242 63.78973866 10.26420242 65.1586523 19.25 66.5625 C20.7850981 66.79920557 22.32025406 67.03553615 23.85546875 67.27148438 C27.57099225 67.84334563 31.2857012 68.42023974 35 69 C34.35807743 75.25248238 33.48838451 81.41134673 32.40625 87.6015625 C32.17887146 88.9226149 32.17887146 88.9226149 31.94689941 90.27035522 C31.46710289 93.05567596 30.98375905 95.84036501 30.5 98.625 C30.0168283 101.41687326 29.53443272 104.20887711 29.05310059 107.00106812 C28.75490271 108.72981149 28.45557122 110.45835985 28.15490723 112.18667603 C27.36005652 116.78280608 26.63440342 121.37891268 26 126 C16.68312377 125.47763121 7.66690848 124.2175685 -1.5 122.5 C-3.35238281 122.16162109 -3.35238281 122.16162109 -5.2421875 121.81640625 C-10.16900469 120.91333455 -15.09041294 119.99279738 -20 119 C-20.06894974 119.54338013 -20.13789948 120.08676025 -20.2089386 120.64660645 C-21.58330985 131.36204807 -23.10980889 142.02627815 -25.04296875 152.65625 C-25.30534836 154.11454224 -25.30534836 154.11454224 -25.57302856 155.60229492 C-26.28651355 159.55977137 -27.00217632 163.5165145 -27.74682617 167.46826172 C-29.77758643 178.30076683 -31.35800288 188.92860549 -31.48828125 199.96875 C-31.50739059 200.86025757 -31.52649994 201.75176514 -31.54618835 202.67028809 C-31.49707072 208.51539152 -30.41665461 213.17029538 -27 218 C-19.58380101 223.90268899 -11.10712358 223.96528173 -2 223 C0.70507998 222.18918414 2.93957918 221.24208725 5.3984375 219.875 C7 219 7 219 9 219 C9.02505615 219.74572266 9.0501123 220.49144531 9.07592773 221.25976562 C9.19273218 224.67331596 9.31507245 228.0866469 9.4375 231.5 C9.47681641 232.67304687 9.51613281 233.84609375 9.55664062 235.0546875 C9.80403509 242.21831936 9.80403509 242.21831936 10.53125 249.34375 C11.03954663 253.30846371 11.0981859 257.00317966 11.0625 261 C11.05798828 261.67933594 11.05347656 262.35867188 11.04882812 263.05859375 C11.0372283 264.70576874 11.01930199 266.35289726 11 268 C-4.11551326 278.24495899 -24.3339353 279.34377638 -41.8984375 276.234375 C-46.01123843 275.37854232 -49.99143648 274.25485467 -54 273 C-54.9384375 272.71125 -55.876875 272.4225 -56.84375 272.125 C-73.32109988 266.28492662 -83.28920239 255.03779987 -91 240 C-101.6607061 217.09082306 -95.42065517 189.76169224 -91.13397217 165.96026611 C-90.49400078 162.3805565 -89.87899344 158.79657055 -89.26171875 155.21289062 C-88.08390847 148.39668825 -86.88045555 141.58529101 -85.66918945 134.77496338 C-84.6458339 129.00211428 -83.64247553 123.22583231 -82.640625 117.44921875 C-82.31803942 115.59204005 -81.99544894 113.7348622 -81.67285156 111.87768555 C-81.45081055 110.59804932 -81.22876953 109.31841309 -81 108 C-86.61 107.34 -92.22 106.68 -98 106 C-97.36526447 101.3452728 -96.72912696 96.69942484 -96.03515625 92.0546875 C-95.46306885 88.21312343 -94.91163535 84.37025074 -94.39794922 80.52050781 C-93.85410514 76.45275804 -93.27125652 72.39195209 -92.66778564 68.3326416 C-92.43119421 66.69605155 -92.20764059 65.05752294 -91.99725342 63.4173584 C-91.69524491 61.08170785 -91.34708308 58.75719732 -90.98828125 56.4296875 C-90.90783066 55.72425812 -90.82738007 55.01882874 -90.74449158 54.29202271 C-90.41137695 52.31201172 -90.41137695 52.31201172 -89 49 C-86.45501986 47.45915046 -83.86732752 46.72758311 -81 46 C-54.95007829 36.93785731 -28.6946415 24.53584797 -8 6 C-1.07883817 0 -1.07883817 0 0 0 Z " fill="#622A06" transform="translate(1235,711)"/>
<path d="M0 0 C1.14259277 0.36963867 2.28518555 0.73927734 3.46240234 1.12011719 C28.12207812 9.13307003 51.61465581 19.16391632 74.8125 30.6875 C75.42739288 30.99167847 76.04228577 31.29585693 76.67581177 31.60925293 C78.39835811 32.46495467 80.11535183 33.331807 81.83203125 34.19921875 C82.80889893 34.69252686 83.7857666 35.18583496 84.79223633 35.6940918 C87 37 87 37 88 39 C86.04604346 39.80240849 84.08653232 40.59129309 82.125 41.375 C81.03445313 41.81585937 79.94390625 42.25671875 78.8203125 42.7109375 C70.14135496 45.83178757 61.53500675 46.35973044 52.375 46.3125 C51.22708984 46.30686035 50.07917969 46.3012207 48.89648438 46.29541016 C39.92452158 46.16778083 31.69415898 45.35958386 23 43 C22.01435059 42.74186523 22.01435059 42.74186523 21.00878906 42.47851562 C9.62853572 39.40859399 -0.51311617 34.35173414 -10.95996094 28.96923828 C-26.92462949 20.83809264 -43.82392027 15.00822037 -61 10 C-62.33092163 9.58916464 -63.66164564 9.17768862 -64.9921875 8.765625 C-74.05016285 6.03070355 -83.19378376 4.0717277 -92.5 2.375 C-93.54704102 2.18099609 -94.59408203 1.98699219 -95.67285156 1.78710938 C-99.44035553 1.12849387 -103.21459517 0.54393382 -107 0 C-107.89194061 -0.12881561 -108.78388123 -0.25763123 -109.70285034 -0.39035034 C-126.10210745 -2.68682515 -142.24535815 -3.44691113 -158.7956543 -3.33618164 C-162.56385701 -3.31249147 -166.33135023 -3.31566793 -170.09960938 -3.32226562 C-201.32090401 -3.28604101 -231.60366892 -0.07722914 -262 7 C-263.83979776 7.4194726 -265.67964086 7.83874639 -267.51953125 8.2578125 C-276.55942351 10.34142633 -285.48924755 12.63862182 -294.36791992 15.3293457 C-297.95444584 16.41396827 -301.52246779 17.40692742 -305.1875 18.1875 C-311.45713862 19.52365249 -316.73728172 21.82178477 -322.375 24.8125 C-343.4886683 35.70085882 -368.01242682 38.79914136 -391 32 C-390.44376953 31.7225293 -389.88753906 31.44505859 -389.31445312 31.15917969 C-387.75377369 30.37752294 -386.19521609 29.5916171 -384.63867188 28.80175781 C-358.18403065 15.43897086 -330.52214578 4.14255436 -302 -4 C-300.49880615 -4.4338501 -300.49880615 -4.4338501 -298.96728516 -4.87646484 C-283.13043501 -9.41544297 -267.21286256 -13.08440483 -251 -16 C-249.80262207 -16.2158374 -249.80262207 -16.2158374 -248.58105469 -16.43603516 C-237.71131479 -18.35325113 -226.75820141 -19.72351777 -215.8125 -21.125 C-215.14685028 -21.21153839 -214.48120056 -21.29807678 -213.79537964 -21.38723755 C-142.51419942 -30.6011698 -68.09858953 -22.40151271 0 0 Z " fill="#FEDA4D" transform="translate(1157,543)"/>
<path d="M0 0 C1.49457733 0.00090637 1.49457733 0.00090637 3.01934814 0.00183105 C26.54722385 0.04049487 49.59713493 1.0130309 72.73339844 5.63867188 C75.61013604 6.1967411 78.49251551 6.68935784 81.3828125 7.171875 C112.75908117 12.61673074 148.08596329 24.16162211 174.5625 42.1875 C177.06281654 45.93797482 177.09853554 47.74606266 176.5625 52.1875 C174.125 55.0625 174.125 55.0625 171.5625 57.1875 C171.2325 57.5175 170.9025 57.8475 170.5625 58.1875 C165.36239094 58.73855633 161.88992163 57.17654443 157.4375 54.75 C156.00285581 54.00611042 154.56658258 53.26535624 153.12890625 52.52734375 C152.37883301 52.14046387 151.62875977 51.75358398 150.85595703 51.35498047 C92.73637638 21.76930507 23.92480236 13.51365348 -40.4375 21.1875 C-41.55463379 21.31640625 -42.67176758 21.4453125 -43.82275391 21.578125 C-60.53609546 23.55219569 -76.87706072 26.48013264 -93.23681641 30.41845703 C-96.32452434 31.16035482 -99.41725421 31.87674304 -102.51171875 32.58984375 C-114.72128362 35.46527387 -126.54837201 39.0442116 -138.35546875 43.29223633 C-144.26866946 45.36925699 -149.15513136 46.95750395 -155.4375 46.1875 C-158.5 43.625 -158.5 43.625 -160.4375 40.1875 C-160.50544658 36.24659827 -160.25381755 34.14499885 -157.67578125 31.12109375 C-130.43616626 7.58948918 -67.41352226 4.39694429 -33.4375 1.1875 C-32.53169189 1.08961182 -31.62588379 0.99172363 -30.69262695 0.89086914 C-20.48749177 -0.12574479 -10.2447659 -0.01141949 0 0 Z " fill="#642C09" transform="translate(989.4375,471.8125)"/>
<path d="M0 0 C0 0.66 0 1.32 0 2 C-0.66789551 2.36351562 -1.33579102 2.72703125 -2.02392578 3.1015625 C-6.79222284 5.69927279 -11.55559293 8.30483047 -16.3046875 10.9375 C-69.66101866 40.37134794 -129.75533287 65.28737378 -191 71 C-190.62174072 70.49887695 -190.24348145 69.99775391 -189.85375977 69.48144531 C-187.55411141 66.43404836 -185.27087038 63.38304903 -183.06640625 60.265625 C-172.87085558 45.87658273 -163.09312184 39.49406242 -145.61889648 36.39770508 C-142.7483902 35.91496444 -139.87522171 35.45378293 -137 35 C-135.98583008 34.83790039 -134.97166016 34.67580078 -133.92675781 34.50878906 C-129.68620364 33.83172579 -125.44491879 33.15932229 -121.20336914 32.48852539 C-105.01313805 29.91131504 -89.12331802 26.38648956 -73.1875 22.5625 C-72.39976196 22.37531403 -71.61202393 22.18812805 -70.80041504 21.99526978 C-61.4462677 19.76495227 -52.30280366 17.25829929 -43.21557617 14.10424805 C-40.20413512 13.07010122 -37.18196338 12.13895306 -34.125 11.25 C-26.10511398 8.82890233 -18.26534001 5.88719551 -10.40478516 2.99707031 C-9.34952637 2.61131836 -8.29426758 2.22556641 -7.20703125 1.828125 C-6.2528833 1.4765332 -5.29873535 1.12494141 -4.31567383 0.76269531 C-2 0 -2 0 0 0 Z " fill="#FDD94D" transform="translate(1268,1462)"/>
<path d="M0 0 C0.78052734 -0.01160156 1.56105469 -0.02320313 2.36523438 -0.03515625 C3.50508789 -0.02935547 3.50508789 -0.02935547 4.66796875 -0.0234375 C5.68346802 -0.01836182 5.68346802 -0.01836182 6.71948242 -0.01318359 C9.78243399 0.55488978 11.43687219 1.32292986 13.8125 3.375 C14.36993229 6.24680494 14.58471529 8.52771128 14.58203125 11.41015625 C14.5939299 12.20344833 14.60582855 12.99674042 14.61808777 13.81407166 C14.6346393 15.49600618 14.63798186 17.17811464 14.62915039 18.86010742 C14.62504982 21.40655997 14.68978261 23.94488057 14.75976562 26.49023438 C14.86072465 35.51055441 14.50264551 41.67380914 7.90625 48.48095703 C7.2153125 49.10599121 6.524375 49.73102539 5.8125 50.375 C5.13767578 51.05361084 4.46285156 51.73222168 3.76757812 52.43139648 C-3.12796444 59.28217517 -12.69814029 63.48886598 -22.375 63.625 C-28.79429287 63.54654198 -34.03751177 63.22901618 -38.93359375 58.79296875 C-44.05386681 53.15698474 -45.72575312 47.99122307 -45.5625 40.41015625 C-43.94877167 27.34904261 -34.74994751 16.76278985 -25.1875 8.375 C-17.38762407 2.52129194 -9.72956916 -0.14679987 0 0 Z " fill="#FDD94C" transform="translate(1037.1875,846.625)"/>
<path d="M0 0 C1.20108398 0.24073242 2.40216797 0.48146484 3.63964844 0.72949219 C25.1607028 5.224736 25.1607028 5.224736 28.75 9.9375 C30.17015557 13.6747515 30.29687588 15.3042255 28.9375 19.0625 C26.875 21.9375 26.875 21.9375 23.9375 24.0625 C17.56109709 25.10591138 12.24251522 23.04643202 6.15234375 21.20703125 C-5.96772008 17.75294489 -18.73796218 16.18812745 -31.1875 14.375 C-32.0029126 14.25568115 -32.8183252 14.1363623 -33.65844727 14.01342773 C-44.71374965 12.46575254 -55.614219 11.93965016 -66.77175713 12.10959625 C-69.75408999 12.15240155 -72.73648683 12.17526449 -75.71901798 12.19962692 C-81.24353557 12.24504831 -86.76769782 12.29890321 -92.29174805 12.38476562 C-96.16351281 12.44418378 -100.03483341 12.47912264 -103.90699959 12.49794769 C-105.37387161 12.50965919 -106.84070144 12.53042389 -108.3073101 12.56058502 C-110.35313049 12.60166563 -112.39693403 12.611477 -114.44311523 12.61425781 C-115.60383041 12.62837708 -116.76454559 12.64249634 -117.96043396 12.65704346 C-122.03957951 11.87523247 -123.51989117 10.27966434 -126.0625 7.0625 C-126.75401325 2.75975091 -126.57807405 0.85304688 -124.1875 -2.8125 C-103.69900689 -23.30099311 -26.21272878 -5.30630106 0 0 Z " fill="#642C07" transform="translate(1071.0625,645.9375)"/>
<path d="M0 0 C5.47025311 3.16806093 8.76090553 7.01709159 10.78515625 13.08984375 C12.09431796 24.30886244 9.45213793 33.90102022 2.62890625 42.94921875 C0.43211855 45.43188978 -1.8505459 47.76739188 -4.21484375 50.08984375 C-4.76785156 50.71246094 -5.32085938 51.33507812 -5.890625 51.9765625 C-14.28179205 61.24224323 -28.90434123 69.52146553 -41.21484375 72.08984375 C-46.35980191 57.57371179 -46.68846385 39.19594188 -40.21484375 25.08984375 C-38.43964895 21.56937316 -36.48082491 18.31472877 -34.21484375 15.08984375 C-33.77527344 14.45433594 -33.33570313 13.81882812 -32.8828125 13.1640625 C-25.87530095 4.05631694 -11.67391949 -4.79721912 0 0 Z " fill="#FDD94C" transform="translate(837.21484375,815.91015625)"/>
<path d="M0 0 C3.33754721 0.60554654 3.95186851 0.94680203 6.375 3.625 C10.31241793 9.54327942 12.62951909 16.34236554 15 23 C15.34546875 23.93457031 15.6909375 24.86914062 16.046875 25.83203125 C18.17661571 32.69341287 18.27291367 39.49945988 18.3125 46.625 C18.31813965 47.59115234 18.3237793 48.55730469 18.32958984 49.55273438 C18.16383421 66.01592132 13.31273567 83.20463975 2.4296875 95.8203125 C-0.06998675 98.21528835 -1.6554055 98.98621622 -5.125 99.125 C-8.83503499 97.67324718 -9.9369133 96.41476419 -12 93 C-18.35017996 77.86162455 -17.35800679 58.78609378 -14 43 C-13.83338867 42.18917969 -13.66677734 41.37835937 -13.49511719 40.54296875 C-7.52267081 11.70193238 -7.52267081 11.70193238 0 0 Z " fill="#FDD94C" transform="translate(1028,1126)"/>
<path d="M0 0 C3.87205765 1.51515299 4.92971056 3.52261214 6.875 7.125 C11.07549581 19.72648742 7.18378727 32.60998761 1.875 44.125 C1.45734375 45.08277344 1.0396875 46.04054688 0.609375 47.02734375 C-5.90382658 61.11756983 -17.57372232 72.75184226 -31.125 80.125 C-32.61 80.62 -32.61 80.62 -34.125 81.125 C-35.39023554 55.39854393 -26.07380042 23.8275707 -9.125 4.125 C-3.89307659 0.15572306 -3.89307659 0.15572306 0 0 Z " fill="#FCD84C" transform="translate(775.125,1104.875)"/>
<path d="M0 0 C5.87529418 3.25573627 8.7563121 8.2001242 11.6875 14.0625 C12.59021794 21.92414482 12.2426048 28.29354978 7.64453125 34.89453125 C3.51495469 39.46921187 -0.96727714 42.45941757 -7.0859375 43.5625 C-14.25604018 43.88384914 -20.6505731 42.29973954 -26.09765625 37.484375 C-31.11725263 32.00845167 -34.01751742 25.97348742 -33.72265625 18.4609375 C-32.49984743 11.31041738 -28.71160703 5.72592646 -23.15625 1.21875 C-15.92854001 -3.31388169 -7.73418382 -3.38808657 0 0 Z " fill="#642B07" transform="translate(860.3125,1476.9375)"/>
<path d="M0 0 C1.49080078 0.36738281 1.49080078 0.36738281 3.01171875 0.7421875 C9.37173255 2.47603927 15.12902639 4.86960378 20.9375 7.9375 C21.55206055 8.26121582 22.16662109 8.58493164 22.79980469 8.91845703 C26.95870513 11.20437749 30.43386353 13.86942218 34 17 C32 18 32 18 30.23510742 17.59448242 C29.53232666 17.35060791 28.8295459 17.1067334 28.10546875 16.85546875 C27.31333984 16.59056641 26.52121094 16.32566406 25.70507812 16.05273438 C24.06872212 15.49035601 22.43325103 14.92539386 20.79882812 14.35742188 C8.78204662 10.35182804 -3.34985428 9.55685572 -15.9375 9.5625 C-16.65622284 9.56176483 -17.37494568 9.56102966 -18.115448 9.56027222 C-43.41190949 9.62785457 -64.25843143 16.7959638 -85 31 C-86.9969873 32.33790256 -88.99858202 33.66872648 -91 35 C-83.38017018 18.86599415 -67.91658758 8.78873238 -52 2 C-36.02598285 -3.15533651 -16.30521831 -4.46788659 0 0 Z " fill="#FAD64B" transform="translate(1024,1475)"/>
<path d="M0 0 C4.47870656 2.15937638 7.18198188 4.92952939 10 9 C11.62100654 13.86301963 11.39061285 17.7413586 9.875 22.625 C7.25721377 27.33701522 4.3499954 29.73461786 -0.4375 32.3125 C-5.64331695 33.7091826 -9.48852117 33.59268506 -14.1875 30.9375 C-18.07739438 28.22590373 -20.61583519 25.59095659 -22 21 C-22.84524355 15.54214168 -22.96389842 10.70715207 -19.8125 6 C-14.56806932 -0.65959452 -7.91684224 -0.96677856 0 0 Z " fill="#642C07" transform="translate(1120,1404)"/>
<path d="M0 0 C4.06009672 2.34550377 7.27080314 4.50211236 8.88671875 9.046875 C9.56016893 14.12758772 9.48520977 17.87126764 7.13671875 22.484375 C3.13500196 27.04188579 0.21511843 28.85602257 -5.92578125 29.359375 C-10.32925703 29.28665705 -12.74419698 27.95653869 -16.11328125 25.046875 C-20.04844956 20.69747845 -20.75672735 17.12865245 -20.4921875 11.4453125 C-19.80876048 7.11928995 -17.93406033 4.48907625 -14.53515625 1.796875 C-9.83524319 -1.25171726 -5.35097649 -2.41337941 0 0 Z " fill="#642C0A" transform="translate(1164.11328125,1572.953125)"/>
<path d="M0 0 C3.71529128 2.88967099 4.60135134 5.63407926 5.1875 10.25 C5.01682785 14.99288928 3.058245 17.09853384 -0.3125 20.3125 C-3.96538193 21.53012731 -6.47004136 21.70325851 -10.3125 21.3125 C-13.28801795 19.53646702 -15.74005188 17.45739623 -17.3125 14.3125 C-17.99378376 7.49966238 -17.99378376 7.49966238 -16.265625 4.48828125 C-11.73123219 -1.01967237 -6.75282412 -2.00759636 0 0 Z " fill="#642B09" transform="translate(906.3125,1591.6875)"/>
<path d="M0 0 C2.375 1.5625 2.375 1.5625 4 4 C4.42145216 7.43182475 4.6712306 9.81547541 2.9375 12.875 C-0.13408409 14.65850044 -2.45638757 15 -6 15 C-9 13 -9 13 -11 10 C-11.06641554 6.14789873 -10.87229157 4.00151995 -8.3125 1.0625 C-5.26397123 -0.33817538 -3.32073048 -0.4842732 0 0 Z " fill="#683008" transform="translate(1194,1356)"/>
<path d="M0 0 C0.66 0 1.32 0 2 0 C2.98043964 2.94131891 3.11621202 4.82501665 3.09765625 7.88671875 C3.09282227 9.2934082 3.09282227 9.2934082 3.08789062 10.72851562 C3.07951172 11.70498047 3.07113281 12.68144531 3.0625 13.6875 C3.05798828 14.67556641 3.05347656 15.66363281 3.04882812 16.68164062 C3.03704303 19.12115474 3.02059011 21.56054689 3 24 C2.34 24.33 1.68 24.66 1 25 C-1.48577137 17.23196447 -2.61370506 7.84111518 0 0 Z " fill="#EEC845" transform="translate(1269,1112)"/>
<path d="M0 0 C0 0.66 0 1.32 0 2 C-2.97 3.32 -5.94 4.64 -9 6 C-9.33 5.01 -9.66 4.02 -10 3 C-8.70990357 2.49596232 -7.41786211 1.99690074 -6.125 1.5 C-5.04605469 1.08234375 -5.04605469 1.08234375 -3.9453125 0.65625 C-2 0 -2 0 0 0 Z " fill="#EBC854" transform="translate(1268,1462)"/>
</svg>
